<svg width="205" height="50" viewBox="0 0 205 75" fill="none" xmlns="http://www.w3.org/2000/svg">
<path d="M84.7202 44.3636C84.7202 46.8182 84.277 48.9394 83.3906 50.7273C82.5043 52.5152 81.2884 53.8939 79.7429 54.8636C78.1974 55.8333 76.4323 56.3182 74.4474 56.3182C72.4626 56.3182 70.6974 55.8333 69.152 54.8636C67.6065 53.8939 66.3906 52.5152 65.5043 50.7273C64.6179 48.9394 64.1747 46.8182 64.1747 44.3636C64.1747 41.9091 64.6179 39.7879 65.5043 38C66.3906 36.2121 67.6065 34.8333 69.152 33.8636C70.6974 32.8939 72.4626 32.4091 74.4474 32.4091C76.4323 32.4091 78.1974 32.8939 79.7429 33.8636C81.2884 34.8333 82.5043 36.2121 83.3906 38C84.277 39.7879 84.7202 41.9091 84.7202 44.3636ZM81.9929 44.3636C81.9929 42.3485 81.6558 40.6477 80.9815 39.2614C80.3149 37.875 79.4096 36.8258 78.2656 36.1136C77.1293 35.4015 75.8565 35.0455 74.4474 35.0455C73.0384 35.0455 71.7618 35.4015 70.6179 36.1136C69.4815 36.8258 68.5762 37.875 67.902 39.2614C67.2353 40.6477 66.902 42.3485 66.902 44.3636C66.902 46.3788 67.2353 48.0795 67.902 49.4659C68.5762 50.8523 69.4815 51.9015 70.6179 52.6136C71.7618 53.3258 73.0384 53.6818 74.4474 53.6818C75.8565 53.6818 77.1293 53.3258 78.2656 52.6136C79.4096 51.9015 80.3149 50.8523 80.9815 49.4659C81.6558 48.0795 81.9929 46.3788 81.9929 44.3636ZM91.777 45.5V56H89.0952V38.5455H91.6861V41.2727H91.9134C92.3224 40.3864 92.9437 39.6742 93.777 39.1364C94.6103 38.5909 95.6861 38.3182 97.0043 38.3182C98.1861 38.3182 99.2202 38.5606 100.107 39.0455C100.993 39.5227 101.682 40.25 102.175 41.2273C102.667 42.197 102.913 43.4242 102.913 44.9091V56H100.232V45.0909C100.232 43.7197 99.8755 42.6515 99.1634 41.8864C98.4512 41.1136 97.474 40.7273 96.2315 40.7273C95.3755 40.7273 94.6103 40.9129 93.9361 41.2841C93.2694 41.6553 92.7429 42.197 92.3565 42.9091C91.9702 43.6212 91.777 44.4848 91.777 45.5ZM115.132 56.3636C113.45 56.3636 112 55.9924 110.78 55.25C109.568 54.5 108.632 53.4545 107.973 52.1136C107.321 50.7652 106.996 49.197 106.996 47.4091C106.996 45.6212 107.321 44.0455 107.973 42.6818C108.632 41.3106 109.549 40.2424 110.723 39.4773C111.905 38.7045 113.284 38.3182 114.859 38.3182C115.768 38.3182 116.666 38.4697 117.553 38.7727C118.439 39.0758 119.246 39.5682 119.973 40.25C120.7 40.9242 121.28 41.8182 121.712 42.9318C122.143 44.0455 122.359 45.4167 122.359 47.0455V48.1818H108.905V45.8636H119.632C119.632 44.8788 119.435 44 119.041 43.2273C118.655 42.4545 118.102 41.8447 117.382 41.3977C116.67 40.9508 115.829 40.7273 114.859 40.7273C113.791 40.7273 112.867 40.9924 112.087 41.5227C111.314 42.0455 110.719 42.7273 110.303 43.5682C109.886 44.4091 109.678 45.3106 109.678 46.2727V47.8182C109.678 49.1364 109.905 50.2538 110.359 51.1705C110.821 52.0795 111.462 52.7727 112.28 53.25C113.098 53.7197 114.049 53.9545 115.132 53.9545C115.837 53.9545 116.473 53.8561 117.041 53.6591C117.617 53.4545 118.113 53.1515 118.53 52.75C118.946 52.3409 119.268 51.8333 119.496 51.2273L122.087 51.9545C121.814 52.8333 121.356 53.6061 120.712 54.2727C120.068 54.9318 119.272 55.447 118.325 55.8182C117.378 56.1818 116.314 56.3636 115.132 56.3636Z" fill="#69EC76" fill-opacity="0.6"/>
<path d="M145.53 40H142.712C142.545 39.1894 142.253 38.4773 141.837 37.8636C141.428 37.25 140.928 36.7348 140.337 36.3182C139.753 35.8939 139.106 35.5758 138.393 35.3636C137.681 35.1515 136.939 35.0455 136.166 35.0455C134.757 35.0455 133.481 35.4015 132.337 36.1136C131.2 36.8258 130.295 37.875 129.621 39.2614C128.954 40.6477 128.621 42.3485 128.621 44.3636C128.621 46.3788 128.954 48.0795 129.621 49.4659C130.295 50.8523 131.2 51.9015 132.337 52.6136C133.481 53.3258 134.757 53.6818 136.166 53.6818C136.939 53.6818 137.681 53.5758 138.393 53.3636C139.106 53.1515 139.753 52.8371 140.337 52.4205C140.928 51.9962 141.428 51.4773 141.837 50.8636C142.253 50.2424 142.545 49.5303 142.712 48.7273H145.53C145.318 49.9167 144.931 50.9811 144.371 51.9205C143.81 52.8598 143.113 53.6591 142.28 54.3182C141.446 54.9697 140.511 55.4659 139.473 55.8068C138.443 56.1477 137.34 56.3182 136.166 56.3182C134.181 56.3182 132.416 55.8333 130.871 54.8636C129.325 53.8939 128.109 52.5152 127.223 50.7273C126.337 48.9394 125.893 46.8182 125.893 44.3636C125.893 41.9091 126.337 39.7879 127.223 38C128.109 36.2121 129.325 34.8333 130.871 33.8636C132.416 32.8939 134.181 32.4091 136.166 32.4091C137.34 32.4091 138.443 32.5795 139.473 32.9205C140.511 33.2614 141.446 33.7614 142.28 34.4205C143.113 35.072 143.81 35.8674 144.371 36.8068C144.931 37.7386 145.318 38.803 145.53 40ZM152.402 32.7273V56H149.72V32.7273H152.402ZM157.314 56V38.5455H159.996V56H157.314ZM158.678 35.6364C158.155 35.6364 157.704 35.4583 157.325 35.1023C156.954 34.7462 156.768 34.3182 156.768 33.8182C156.768 33.3182 156.954 32.8902 157.325 32.5341C157.704 32.178 158.155 32 158.678 32C159.2 32 159.647 32.178 160.018 32.5341C160.397 32.8902 160.587 33.3182 160.587 33.8182C160.587 34.3182 160.397 34.7462 160.018 35.1023C159.647 35.4583 159.2 35.6364 158.678 35.6364ZM171.999 56.3636C170.362 56.3636 168.953 55.9773 167.771 55.2045C166.589 54.4318 165.68 53.3674 165.044 52.0114C164.408 50.6553 164.089 49.1061 164.089 47.3636C164.089 45.5909 164.415 44.0265 165.067 42.6705C165.726 41.3068 166.643 40.2424 167.817 39.4773C168.999 38.7045 170.377 38.3182 171.953 38.3182C173.18 38.3182 174.286 38.5455 175.271 39C176.256 39.4545 177.063 40.0909 177.692 40.9091C178.321 41.7273 178.711 42.6818 178.862 43.7727H176.18C175.976 42.9773 175.521 42.2727 174.817 41.6591C174.12 41.0379 173.18 40.7273 171.999 40.7273C170.953 40.7273 170.036 41 169.249 41.5455C168.468 42.0833 167.858 42.8447 167.419 43.8295C166.987 44.8068 166.771 45.9545 166.771 47.2727C166.771 48.6212 166.983 49.7955 167.408 50.7955C167.839 51.7955 168.446 52.572 169.226 53.125C170.014 53.678 170.938 53.9545 171.999 53.9545C172.696 53.9545 173.328 53.8333 173.896 53.5909C174.464 53.3485 174.946 53 175.339 52.5455C175.733 52.0909 176.014 51.5455 176.18 50.9091H178.862C178.711 51.9394 178.336 52.8674 177.737 53.6932C177.146 54.5114 176.362 55.1629 175.385 55.6477C174.415 56.125 173.286 56.3636 171.999 56.3636ZM185.283 49.6364L185.237 46.3182H185.783L193.419 38.5455H196.737L188.601 46.7727H188.374L185.283 49.6364ZM182.783 56V32.7273H185.464V56H182.783ZM193.874 56L187.055 47.3636L188.964 45.5L197.283 56H193.874Z" fill="#3C6B41"/>
</svg>
